<?xml version="1.0" encoding="UTF-8" standalone="no"?>
<!DOCTYPE svg PUBLIC "-//W3C//DTD SVG 1.1//EN"
 "http://www.w3.org/Graphics/SVG/1.1/DTD/svg11.dtd">
<!-- Generated by graphviz version 2.38.0 (20140413.2041)
 -->
<!-- Title: snakemake_dag Pages: 1 -->
<svg width="274pt" height="404pt"
 viewBox="0.00 0.00 274.00 404.00" xmlns="http://www.w3.org/2000/svg" xmlns:xlink="http://www.w3.org/1999/xlink">
<g id="graph0" class="graph" transform="scale(1 1) rotate(0) translate(4 400)">
<title>snakemake_dag</title>
<polygon fill="white" stroke="none" points="-4,4 -4,-400 270,-400 270,4 -4,4"/>
<!-- 0 -->
<g id="node1" class="node"><title>0</title>
<path fill="none" stroke="#56a9d8" stroke-width="2" d="M121,-36C121,-36 91,-36 91,-36 85,-36 79,-30 79,-24 79,-24 79,-12 79,-12 79,-6 85,-0 91,-0 91,-0 121,-0 121,-0 127,-0 133,-6 133,-12 133,-12 133,-24 133,-24 133,-30 127,-36 121,-36"/>
<text text-anchor="middle" x="106" y="-15.5" font-family="sans" font-size="10.00">all</text>
</g>
<!-- 1 -->
<g id="node2" class="node"><title>1</title>
<path fill="none" stroke="#afd856" stroke-width="2" d="M127.5,-108C127.5,-108 84.5,-108 84.5,-108 78.5,-108 72.5,-102 72.5,-96 72.5,-96 72.5,-84 72.5,-84 72.5,-78 78.5,-72 84.5,-72 84.5,-72 127.5,-72 127.5,-72 133.5,-72 139.5,-78 139.5,-84 139.5,-84 139.5,-96 139.5,-96 139.5,-102 133.5,-108 127.5,-108"/>
<text text-anchor="middle" x="106" y="-87.5" font-family="sans" font-size="10.00">plot_quals</text>
</g>
<!-- 1&#45;&gt;0 -->
<g id="edge1" class="edge"><title>1&#45;&gt;0</title>
<path fill="none" stroke="grey" stroke-width="2" d="M106,-71.6966C106,-63.9827 106,-54.7125 106,-46.1124"/>
<polygon fill="grey" stroke="grey" stroke-width="2" points="109.5,-46.1043 106,-36.1043 102.5,-46.1044 109.5,-46.1043"/>
</g>
<!-- 2 -->
<g id="node3" class="node"><title>2</title>
<path fill="none" stroke="#d8ac56" stroke-width="2" stroke-dasharray="5,2" d="M133,-180C133,-180 79,-180 79,-180 73,-180 67,-174 67,-168 67,-168 67,-156 67,-156 67,-150 73,-144 79,-144 79,-144 133,-144 133,-144 139,-144 145,-150 145,-156 145,-156 145,-168 145,-168 145,-174 139,-180 133,-180"/>
<text text-anchor="middle" x="106" y="-159.5" font-family="sans" font-size="10.00">bcftools_call</text>
</g>
<!-- 2&#45;&gt;1 -->
<g id="edge2" class="edge"><title>2&#45;&gt;1</title>
<path fill="none" stroke="grey" stroke-width="2" d="M106,-143.697C106,-135.983 106,-126.712 106,-118.112"/>
<polygon fill="grey" stroke="grey" stroke-width="2" points="109.5,-118.104 106,-108.104 102.5,-118.104 109.5,-118.104"/>
</g>
<!-- 3 -->
<g id="node4" class="node"><title>3</title>
<path fill="none" stroke="#56d8a9" stroke-width="2" stroke-dasharray="5,2" d="M74,-324C74,-324 12,-324 12,-324 6,-324 0,-318 0,-312 0,-312 0,-300 0,-300 0,-294 6,-288 12,-288 12,-288 74,-288 74,-288 80,-288 86,-294 86,-300 86,-300 86,-312 86,-312 86,-318 80,-324 74,-324"/>
<text text-anchor="middle" x="43" y="-303.5" font-family="sans" font-size="10.00">samtools_sort</text>
</g>
<!-- 3&#45;&gt;2 -->
<g id="edge3" class="edge"><title>3&#45;&gt;2</title>
<path fill="none" stroke="grey" stroke-width="2" d="M28.9557,-287.737C15.6552,-269.144 -0.435504,-239.121 13,-216 22.7688,-199.189 40.0864,-187.267 57.1509,-179.045"/>
<polygon fill="grey" stroke="grey" stroke-width="2" points="58.8484,-182.12 66.5556,-174.85 55.9971,-175.727 58.8484,-182.12"/>
</g>
<!-- 5 -->
<g id="node6" class="node"><title>5</title>
<path fill="none" stroke="#59d856" stroke-width="2" stroke-dasharray="5,2" d="M104,-252C104,-252 34,-252 34,-252 28,-252 22,-246 22,-240 22,-240 22,-228 22,-228 22,-222 28,-216 34,-216 34,-216 104,-216 104,-216 110,-216 116,-222 116,-228 116,-228 116,-240 116,-240 116,-246 110,-252 104,-252"/>
<text text-anchor="middle" x="69" y="-231.5" font-family="sans" font-size="10.00">samtools_index</text>
</g>
<!-- 3&#45;&gt;5 -->
<g id="edge9" class="edge"><title>3&#45;&gt;5</title>
<path fill="none" stroke="grey" stroke-width="2" d="M49.427,-287.697C52.3551,-279.813 55.887,-270.304 59.1399,-261.546"/>
<polygon fill="grey" stroke="grey" stroke-width="2" points="62.446,-262.697 62.647,-252.104 55.884,-260.26 62.446,-262.697"/>
</g>
<!-- 4 -->
<g id="node5" class="node"><title>4</title>
<path fill="none" stroke="#56d8a9" stroke-width="2" stroke-dasharray="5,2" d="M201,-324C201,-324 139,-324 139,-324 133,-324 127,-318 127,-312 127,-312 127,-300 127,-300 127,-294 133,-288 139,-288 139,-288 201,-288 201,-288 207,-288 213,-294 213,-300 213,-300 213,-312 213,-312 213,-318 207,-324 201,-324"/>
<text text-anchor="middle" x="170" y="-303.5" font-family="sans" font-size="10.00">samtools_sort</text>
</g>
<!-- 4&#45;&gt;2 -->
<g id="edge4" class="edge"><title>4&#45;&gt;2</title>
<path fill="none" stroke="grey" stroke-width="2" d="M162.28,-287.871C151.276,-263.457 130.981,-218.426 118.005,-189.635"/>
<polygon fill="grey" stroke="grey" stroke-width="2" points="121.047,-187.868 113.747,-180.189 114.665,-190.744 121.047,-187.868"/>
</g>
<!-- 6 -->
<g id="node7" class="node"><title>6</title>
<path fill="none" stroke="#59d856" stroke-width="2" stroke-dasharray="5,2" d="M254,-252C254,-252 184,-252 184,-252 178,-252 172,-246 172,-240 172,-240 172,-228 172,-228 172,-222 178,-216 184,-216 184,-216 254,-216 254,-216 260,-216 266,-222 266,-228 266,-228 266,-240 266,-240 266,-246 260,-252 254,-252"/>
<text text-anchor="middle" x="219" y="-231.5" font-family="sans" font-size="10.00">samtools_index</text>
</g>
<!-- 4&#45;&gt;6 -->
<g id="edge10" class="edge"><title>4&#45;&gt;6</title>
<path fill="none" stroke="grey" stroke-width="2" d="M182.112,-287.697C187.868,-279.474 194.862,-269.483 201.206,-260.421"/>
<polygon fill="grey" stroke="grey" stroke-width="2" points="204.16,-262.304 207.027,-252.104 198.425,-258.29 204.16,-262.304"/>
</g>
<!-- 5&#45;&gt;2 -->
<g id="edge5" class="edge"><title>5&#45;&gt;2</title>
<path fill="none" stroke="grey" stroke-width="2" d="M78.1461,-215.697C82.4026,-207.644 87.5558,-197.894 92.2664,-188.982"/>
<polygon fill="grey" stroke="grey" stroke-width="2" points="95.3803,-190.581 96.9591,-180.104 89.1917,-187.31 95.3803,-190.581"/>
</g>
<!-- 6&#45;&gt;2 -->
<g id="edge6" class="edge"><title>6&#45;&gt;2</title>
<path fill="none" stroke="grey" stroke-width="2" d="M191.357,-215.876C176.582,-206.724 158.209,-195.342 142.297,-185.485"/>
<polygon fill="grey" stroke="grey" stroke-width="2" points="144.093,-182.481 133.749,-180.19 140.407,-188.431 144.093,-182.481"/>
</g>
<!-- 7 -->
<g id="node8" class="node"><title>7</title>
<path fill="none" stroke="#d85656" stroke-width="2" stroke-dasharray="5,2" d="M63.5,-396C63.5,-396 22.5,-396 22.5,-396 16.5,-396 10.5,-390 10.5,-384 10.5,-384 10.5,-372 10.5,-372 10.5,-366 16.5,-360 22.5,-360 22.5,-360 63.5,-360 63.5,-360 69.5,-360 75.5,-366 75.5,-372 75.5,-372 75.5,-384 75.5,-384 75.5,-390 69.5,-396 63.5,-396"/>
<text text-anchor="middle" x="43" y="-381" font-family="sans" font-size="10.00">bwa_map</text>
<text text-anchor="middle" x="43" y="-370" font-family="sans" font-size="10.00">sample: A</text>
</g>
<!-- 7&#45;&gt;3 -->
<g id="edge7" class="edge"><title>7&#45;&gt;3</title>
<path fill="none" stroke="grey" stroke-width="2" d="M43,-359.697C43,-351.983 43,-342.712 43,-334.112"/>
<polygon fill="grey" stroke="grey" stroke-width="2" points="46.5001,-334.104 43,-324.104 39.5001,-334.104 46.5001,-334.104"/>
</g>
<!-- 8 -->
<g id="node9" class="node"><title>8</title>
<path fill="none" stroke="#d85656" stroke-width="2" stroke-dasharray="5,2" d="M190.5,-396C190.5,-396 149.5,-396 149.5,-396 143.5,-396 137.5,-390 137.5,-384 137.5,-384 137.5,-372 137.5,-372 137.5,-366 143.5,-360 149.5,-360 149.5,-360 190.5,-360 190.5,-360 196.5,-360 202.5,-366 202.5,-372 202.5,-372 202.5,-384 202.5,-384 202.5,-390 196.5,-396 190.5,-396"/>
<text text-anchor="middle" x="170" y="-381" font-family="sans" font-size="10.00">bwa_map</text>
<text text-anchor="middle" x="170" y="-370" font-family="sans" font-size="10.00">sample: B</text>
</g>
<!-- 8&#45;&gt;4 -->
<g id="edge8" class="edge"><title>8&#45;&gt;4</title>
<path fill="none" stroke="grey" stroke-width="2" d="M170,-359.697C170,-351.983 170,-342.712 170,-334.112"/>
<polygon fill="grey" stroke="grey" stroke-width="2" points="173.5,-334.104 170,-324.104 166.5,-334.104 173.5,-334.104"/>
</g>
</g>
</svg>
